<?xml version="1.0" encoding="UTF-8"?>
<svg xmlns="http://www.w3.org/2000/svg" width="1200" height="630" viewBox="0 0 1200 630" role="img" aria-label="Cloud Network Solutions">
  <defs>
    <linearGradient id="bg" x1="0" y1="0" x2="1" y2="1">
      <stop offset="0" stop-color="#0b1220"/>
      <stop offset="1" stop-color="#0f1a33"/>
    </linearGradient>
    <linearGradient id="g" x1="0" y1="0" x2="1" y2="1">
      <stop offset="0" stop-color="#6ea8ff"/>
      <stop offset="1" stop-color="#7cf0c9"/>
    </linearGradient>
  </defs>
  <rect width="1200" height="630" fill="url(#bg)"/>
  <circle cx="180" cy="130" r="220" fill="#6ea8ff" opacity="0.12"/>
  <circle cx="1050" cy="160" r="260" fill="#7cf0c9" opacity="0.10"/>
  <g transform="translate(110,170)">
    <rect x="0" y="0" width="180" height="180" rx="42" fill="#0f1a33" stroke="rgba(255,255,255,.12)"/>
    <path d="M110 116c16 0 29-13 29-29 0-14-9-26-22-29-5-19-23-33-43-29-16 2-29 12-34 27-15 2-26 15-26 30 0 17 14 30 31 30h65z" fill="url(#g)"/>
  </g>
  <text x="340" y="270" font-family="ui-sans-serif, system-ui, -apple-system, Segoe UI, Roboto, Arial" font-size="64" font-weight="900" fill="#e8eefc">Cloud Network</text>
  <text x="340" y="345" font-family="ui-sans-serif, system-ui, -apple-system, Segoe UI, Roboto, Arial" font-size="64" font-weight="900" fill="#e8eefc">Solutions</text>
  <rect x="340" y="372" width="480" height="10" rx="5" fill="url(#g)" opacity="0.9"/>
  <text x="340" y="440" font-family="ui-sans-serif, system-ui, -apple-system, Segoe UI, Roboto, Arial" font-size="28" font-weight="700" fill="#aab7df">Managed IT • Security • Microsoft 365 • Networking</text>
</svg>
